<svg width="120" height="120" viewBox="0 0 120 120" fill="none" xmlns="http://www.w3.org/2000/svg">
<path d="M60 11.25C57.6563 11.25 55.3275 12.0375 53.3213 13.4775L47.1113 17.8125L39.9563 18.75H39.84L39.7238 18.8663C37.3772 19.3962 35.2288 20.5803 33.5277 22.2814C31.8266 23.9825 30.6425 26.1309 30.1125 28.4775L30 28.5938V28.71L29.0625 35.9775L24.7275 41.6025L24.6075 41.7188V41.835C21.9863 46.0238 21.87 51.4313 24.7275 55.4288L29.1788 61.6388L30.3525 68.0887L18.2813 86.4825L14.415 92.2275H32.3438L36.6788 102.304L39.375 108.75L43.2413 102.889L55.0763 85.0763C58.2563 86.3813 61.845 86.5013 64.9238 85.0763L76.7588 102.889L80.625 108.75L83.3213 102.304L87.6563 92.2275H105.585L101.719 86.4825L90 68.6737L90.9375 61.6425L95.2725 55.4325L95.3925 55.3163V55.2C98.0138 51.0113 98.13 45.72 95.2725 41.7225L90.9375 35.5087L89.5313 28.4775H89.6475C89.6325 28.3875 89.5463 28.3275 89.5313 28.2413C88.8563 23.3363 84.975 19.3537 80.04 18.75H79.92L72.8888 17.8125L66.6788 13.4775C64.7393 12.0567 62.4041 11.2779 60 11.25ZM60 18.8663C60.8625 18.8663 61.7138 19.1287 62.3438 19.5712L69.0225 24.375L69.8438 24.96L70.7813 25.08L78.9863 26.25H79.0988C80.7863 26.4375 81.9563 27.6113 82.1475 29.2988V29.5312L83.6738 37.8525L83.7863 38.6737L84.375 39.375L89.1788 46.0538C90.075 47.2988 90.1913 49.41 89.0625 51.21L83.79 58.5938L83.67 59.5312L82.5 67.7362V67.8488C82.4376 68.4348 82.2371 68.9977 81.915 69.4913L81.6788 69.6112V69.7238C81.1215 70.3931 80.3221 70.8151 79.455 70.8975H79.2188L70.665 72.4237L69.7275 72.5363L69.0225 73.125L62.3438 77.9288C61.0988 78.825 58.8713 78.9412 57.0713 77.8125L50.9775 73.125L50.2725 72.54L49.2188 72.42L41.0138 71.25H40.9013C40.371 71.2032 39.8598 71.0295 39.4108 70.7437C38.9618 70.4578 38.5881 70.0681 38.3213 69.6075C38.0721 69.175 37.9127 68.6967 37.8525 68.2013V67.9688L36.33 59.415L36.21 58.4775L35.625 57.7725L30.8213 51.0938C29.925 49.8488 29.8088 47.6212 30.9375 45.8212L35.625 39.7275L36.21 39.0225L36.3263 37.9688L37.3838 30.1163C37.3988 30.06 37.485 30.06 37.5 30C37.7338 29.0973 38.2048 28.2735 38.8642 27.6142C39.5236 26.9548 40.3473 26.4838 41.25 26.25C41.31 26.235 41.31 26.1487 41.3663 26.1337L49.2188 25.0762L50.1563 24.9638L50.9775 24.375L57.6563 19.5712C58.2863 19.1325 59.1375 18.8663 60 18.8663ZM85.8975 75.9375L91.6425 84.7275H82.6125L81.675 87.0712L79.0988 93.045L71.13 80.8575L72.885 79.5712L80.2725 78.2812V78.3975C80.3588 78.3825 80.415 78.2963 80.505 78.2812C82.4787 77.9965 84.3435 77.1871 85.8975 75.9375ZM34.1025 76.0538C35.7309 77.5341 37.7765 78.4757 39.96 78.75H40.0763L47.2275 79.6875L48.8663 80.9775L40.8975 93.045L38.3213 87.0712L37.3838 84.7275H28.3613L34.1025 76.0538Z" fill="black"/>
</svg>
